{"title":"Detention.2010.DvDRip.H264.Feel-Free","uid":5958509,"size":575114197,"categoryP":"video","categoryS":"movies","magnet":"?xt=urn:btih:41d9e9ca2223287f94d84a768b8d3856c0afa114&amp;dn=Detention.2010.DvDRip.H264.Feel-Free&amp;tr=udp%3A%2F%2Ftracker.openbittorrent.com%3A80&amp;tr=udp%3A%2F%2Fopen.demonii.com%3A1337&amp;tr=udp%3A%2F%2Ftracker.coppersurfer.tk%3A6969&amp;tr=udp%3A%2F%2Fexodus.desync.com%3A6969","seeders":0,"leechers":1,"uploader":"hiest","files":9,"time":1289830245,"description":"Genre:Horror | Thriller \nLanguage:English\nIMDb:http://www.imdb.com/title/tt0990363/\nSource:Urok.vizhivanija.2010.P.DVDRip.ELEKTRI4KA\n\n\nGeneral\nComplete name :Detention.2010.DvDRip.H264.Feel-Free\nFormat : MPEG-4\nFormat profile : Base Media\nCodec ID : mp42\nFile size : 547 MiB\nDuration : 1h 21mn\nOverall bit rate : 941 Kbps\nVideo #1\nCodec ID : avc1\nCodec ID/Info : Advanced Video Coding\nDuration : 1h 21mn\nBit rate mode : Variable\nBit rate : 716 Kbps\nWidth : 720 pixels\nHeight : 384 pixels\nDisplay aspect ratio : 1.875\nFrame rate mode : Constant\nFrame rate : 23.976 fps\nResolution : 24 bits\nColorimetry : 4:2:0\nScan type : Progressive\nBits/(Pixel*Frame) : 0.108\nStream size : 416 MiB (76%)\nAudio #2\nID : 2\nFormat : AAC\nFormat/Info : Advanced Audio Codec\nFormat version : Version 4\nFormat profile : LC\nFormat settings, SBR : No\nCodec ID : 40\nDuration : 1h 21mn\nBit rate mode : Constant\nBit rate : 221 Kbps\nNominal bit rate : 384 Kbps\nChannel(s) : 6 channels\nChannel positions : Front: L C R, Rear: L R, LFE\nSampling rate : 48.0 KHz\nResolution : 16 bits\nStream size : 128 MiB (23%)\n\nPlot:\nA group of high school students are sent to Detention. Abandoned and locked in, images of Ghosts appear as they attempt to escape, only to find themselves connected to a past horrific death and made responsible for it with their lives.","torrent":{"xt":"urn:btih:41d9e9ca2223287f94d84a768b8d3856c0afa114","amp;dn":"Detention.2010.DvDRip.H264.Feel-Free","amp;tr":["udp%3A%2F%2Ftracker.openbittorrent.com%3A80","udp%3A%2F%2Fopen.demonii.com%3A1337","udp%3A%2F%2Ftracker.coppersurfer.tk%3A6969","udp%3A%2F%2Fexodus.desync.com%3A6969"],"infoHash":"41d9e9ca2223287f94d84a768b8d3856c0afa114","infoHashBuffer":{"type":"Buffer","data":[65,217,233,202,34,35,40,127,148,216,74,118,139,141,56,86,192,175,161,20]},"announce":[],"urlList":[]}}